<?xml version="1.0" encoding="utf-8"?>
<!-- Generator: Adobe Illustrator 17.0.0, SVG Export Plug-In . SVG Version: 6.00 Build 0)  -->
<!DOCTYPE svg PUBLIC "-//W3C//DTD SVG 1.1//EN" "http://www.w3.org/Graphics/SVG/1.1/DTD/svg11.dtd">
<svg version="1.1" id="Layer_1" xmlns="http://www.w3.org/2000/svg" xmlns:xlink="http://www.w3.org/1999/xlink" x="0px" y="0px"
	 width="771.328px" height="400px" viewBox="0 0 771.328 400" enable-background="new 0 0 771.328 400" xml:space="preserve">
<g>
	<g>
		<defs>
			<rect id="SVGID_1_" x="30.637" y="39.545" width="175.455" height="175.455"/>
		</defs>
		<clipPath id="SVGID_2_">
			<use xlink:href="#SVGID_1_"  overflow="visible"/>
		</clipPath>
		<g clip-path="url(#SVGID_2_)">
			<defs>
				<rect id="SVGID_3_" x="30.637" y="39.545" width="175.455" height="175.455"/>
			</defs>
			<clipPath id="SVGID_4_">
				<use xlink:href="#SVGID_3_"  overflow="visible"/>
			</clipPath>
			<g clip-path="url(#SVGID_4_)">
				<defs>
					<rect id="SVGID_5_" x="30.637" y="39.545" width="175.455" height="175.455"/>
				</defs>
				<clipPath id="SVGID_6_">
					<use xlink:href="#SVGID_5_"  overflow="visible"/>
				</clipPath>
				<g clip-path="url(#SVGID_6_)">
					<g>
						<defs>
							<rect id="SVGID_7_" x="29.979" y="42.987" width="176.989" height="172.878"/>
						</defs>
						<clipPath id="SVGID_8_">
							<use xlink:href="#SVGID_7_"  overflow="visible"/>
						</clipPath>
						<g opacity="0.65" clip-path="url(#SVGID_8_)">
							<g>
								<defs>
									<rect id="SVGID_9_" x="29.979" y="42.987" width="176.989" height="172.878"/>
								</defs>
								<clipPath id="SVGID_10_">
									<use xlink:href="#SVGID_9_"  overflow="visible"/>
								</clipPath>
							</g>
						</g>
					</g>
				</g>
			</g>
			
				<rect x="36.147" y="47.099" clip-path="url(#SVGID_4_)" fill-rule="evenodd" clip-rule="evenodd" fill="#1C3A37" width="164.488" height="160.376"/>
			<g clip-path="url(#SVGID_4_)">
				<defs>
					<rect id="SVGID_11_" x="30.637" y="39.545" width="175.455" height="175.455"/>
				</defs>
				<clipPath id="SVGID_12_">
					<use xlink:href="#SVGID_11_"  overflow="visible"/>
				</clipPath>
				<g opacity="0.18" clip-path="url(#SVGID_12_)">
					<g>
						<defs>
							<rect id="SVGID_13_" x="36.148" y="58.75" width="164.488" height="146.669"/>
						</defs>
						<clipPath id="SVGID_14_">
							<use xlink:href="#SVGID_13_"  overflow="visible"/>
						</clipPath>
						<g clip-path="url(#SVGID_14_)">
							<defs>
								<path id="SVGID_15_" d="M36.147,201.307h164.489v4.112H36.147V201.307z M36.147,183.487h164.489v4.112H36.147V183.487z
									 M36.147,147.848h164.489v4.112H36.147V147.848z M36.147,130.029h164.489v4.112H36.147V130.029z M36.147,112.209h164.489
									v4.112H36.147V112.209z M36.147,94.389h164.489v4.112H36.147V94.389z M36.147,76.57h164.489v4.112H36.147V76.57z
									 M36.147,58.75h164.489v4.112H36.147V58.75z M36.147,165.668h164.489v4.112H36.147V165.668z"/>
							</defs>
							<clipPath id="SVGID_16_">
								<use xlink:href="#SVGID_15_"  overflow="visible"/>
							</clipPath>
							<defs>
								<filter id="Adobe_OpacityMaskFilter" filterUnits="userSpaceOnUse" x="36.147" y="58.75" width="164.489" height="146.669">
									<feColorMatrix  type="matrix" values="1 0 0 0 0  0 1 0 0 0  0 0 1 0 0  0 0 0 1 0"/>
								</filter>
							</defs>
							<mask maskUnits="userSpaceOnUse" x="36.147" y="58.75" width="164.489" height="146.669" id="SVGID_17_">
								<g filter="url(#Adobe_OpacityMaskFilter)">
									
										<linearGradient id="SVGID_18_" gradientUnits="userSpaceOnUse" x1="-65.6075" y1="-1.0544" x2="-64.9221" y2="-1.0544" gradientTransform="matrix(239.9995 0 0 -239.9995 15781.9023 -120.9788)">
										<stop  offset="0" style="stop-color:#1A1A1A"/>
										<stop  offset="0.483" style="stop-color:#FFFFFF"/>
										<stop  offset="1" style="stop-color:#1A1A1A"/>
									</linearGradient>
									<rect x="36.147" y="58.75" clip-path="url(#SVGID_16_)" fill="url(#SVGID_18_)" width="164.489" height="146.669"/>
								</g>
							</mask>
							
								<linearGradient id="SVGID_19_" gradientUnits="userSpaceOnUse" x1="-65.6075" y1="-1.0544" x2="-64.9221" y2="-1.0544" gradientTransform="matrix(239.9995 0 0 -239.9995 15781.9033 -120.9788)">
								<stop  offset="0" style="stop-color:#42C1C7"/>
								<stop  offset="0.483" style="stop-color:#42C1C7"/>
								<stop  offset="1" style="stop-color:#42C1C7"/>
							</linearGradient>
							
								<rect x="36.147" y="58.75" clip-path="url(#SVGID_16_)" mask="url(#SVGID_17_)" fill="url(#SVGID_19_)" width="164.489" height="146.669"/>
						</g>
					</g>
				</g>
				<g opacity="0.3" clip-path="url(#SVGID_12_)">
					<g>
						<defs>
							<rect id="SVGID_20_" x="36.148" y="49.84" width="164.488" height="146.669"/>
						</defs>
						<clipPath id="SVGID_21_">
							<use xlink:href="#SVGID_20_"  overflow="visible"/>
						</clipPath>
						<g clip-path="url(#SVGID_21_)">
							<defs>
								<path id="SVGID_22_" d="M36.147,174.578h164.489v4.112H36.147V174.578z M36.147,192.397h164.489v4.112H36.147V192.397z
									 M36.147,138.938h164.489v4.112H36.147V138.938z M36.147,156.758h164.489v4.112H36.147V156.758z M36.147,121.119h164.489
									v4.112H36.147V121.119z M36.147,103.299h164.489v4.112H36.147V103.299z M36.147,85.48h164.489v4.112H36.147V85.48z
									 M36.147,67.66h164.489v4.112H36.147V67.66z M36.147,49.84h164.489v4.112H36.147V49.84z"/>
							</defs>
							<clipPath id="SVGID_23_">
								<use xlink:href="#SVGID_22_"  overflow="visible"/>
							</clipPath>
							<defs>
								
									<filter id="Adobe_OpacityMaskFilter_1_" filterUnits="userSpaceOnUse" x="36.147" y="49.84" width="164.489" height="146.669">
									<feColorMatrix  type="matrix" values="1 0 0 0 0  0 1 0 0 0  0 0 1 0 0  0 0 0 1 0"/>
								</filter>
							</defs>
							<mask maskUnits="userSpaceOnUse" x="36.147" y="49.84" width="164.489" height="146.669" id="SVGID_24_">
								<g filter="url(#Adobe_OpacityMaskFilter_1_)">
									
										<linearGradient id="SVGID_25_" gradientUnits="userSpaceOnUse" x1="-65.6075" y1="-1.0715" x2="-64.9221" y2="-1.0715" gradientTransform="matrix(239.9995 0 0 -239.9995 15781.9023 -133.9787)">
										<stop  offset="0" style="stop-color:#1A1A1A"/>
										<stop  offset="0.483" style="stop-color:#FFFFFF"/>
										<stop  offset="1" style="stop-color:#1A1A1A"/>
									</linearGradient>
									<rect x="36.147" y="49.84" clip-path="url(#SVGID_23_)" fill="url(#SVGID_25_)" width="164.489" height="146.669"/>
								</g>
							</mask>
							
								<linearGradient id="SVGID_26_" gradientUnits="userSpaceOnUse" x1="-65.6075" y1="-1.0715" x2="-64.9221" y2="-1.0715" gradientTransform="matrix(239.9995 0 0 -239.9995 15781.9033 -133.9787)">
								<stop  offset="0" style="stop-color:#42C1C7"/>
								<stop  offset="0.483" style="stop-color:#42C1C7"/>
								<stop  offset="1" style="stop-color:#42C1C7"/>
							</linearGradient>
							
								<rect x="36.147" y="49.84" clip-path="url(#SVGID_23_)" mask="url(#SVGID_24_)" fill="url(#SVGID_26_)" width="164.489" height="146.669"/>
						</g>
					</g>
				</g>
				<path clip-path="url(#SVGID_12_)" fill-rule="evenodd" clip-rule="evenodd" fill="#42C1C7" d="M114.965,158.656
					c0,0.659-0.219,0.995-0.774,1.213c-2.865,1.214-7.532,1.652-12.282,1.652c-17.21,0-32.439-11.254-32.439-37.736
					c0-22.728,13.461-37.956,33.987-37.956c5.408,0,9.438,0.555,11.528,1.549c0.555,0.219,0.665,0.548,0.665,1.213v9.486
					c0,0.884-0.439,0.884-0.774,0.774c-2.646-1.322-6.676-2.097-11.309-2.097c-12.912,0-21.521,9.821-21.521,26.702
					c0,20.856,11.809,27.037,21.521,27.037c4.414,0,7.423-0.336,10.623-1.439c0.445-0.22,0.774-0.22,0.774,0.555V158.656z
					 M167.389,133.168c0,17.209-8.828,28.353-22.617,28.353c-16.114,0-22.843-13.679-22.843-28.243
					c0-16.114,8.608-28.025,22.952-28.025C159.336,105.253,167.389,116.616,167.389,133.168 M134.066,133.168
					c0,10.588,3.748,17.984,10.814,17.984c6.066,0,10.37-5.847,10.37-17.765c0-10.041-2.975-17.875-10.699-17.875
					C138.369,115.512,134.066,121.578,134.066,133.168"/>
			</g>
		</g>
	</g>
</g>
<g id="Captions">
</g>
<g id="Your_Icon">
	<path fill="#FFFFFF" d="M760.594,293.654H642.546V123.77c0-2.446-2.229-4.434-4.962-4.434H481.514V26.2
		c0-4.1-3.324-7.424-7.416-7.424H17.088c-4.1,0-7.424,3.324-7.424,7.424v309.359c0,4.1,3.324,7.424,7.424,7.424h173.1
		c-2.602,31.094-11.874,54.097-22.901,54.097v3.961h156.629v-3.961c-11.035,0-20.3-23.002-22.909-54.097h124.719v53.631
		c0,2.438,2.213,4.419,4.962,4.419h123.01h83.894h123.01c2.741,0.008,4.955-1.972,4.955-4.411v-98.54
		C765.556,295.635,763.343,293.654,760.594,293.654z M534.586,126.006c3.324,0,6.018,2.687,6.018,6.011
		c0,3.316-2.703,6.011-6.018,6.011c-3.316,0-6.003-2.695-6.003-6.011C528.575,128.693,531.262,126.006,534.586,126.006z
		 M25.801,286.378V34.859h441.3v84.484h-36.414c-2.749,0-4.962,1.98-4.962,4.434v162.608H25.801V286.378z M447.174,342.983v-56.605
		V144.031h19.927h14.406h140.499v149.616H553.69c-2.734,0-4.962,1.98-4.962,4.426v77.34H447.174V342.983z M568.39,357.544
		c-5.382,0-9.754-4.364-9.754-9.754s4.364-9.746,9.754-9.746s9.754,4.364,9.754,9.746S573.78,357.544,568.39,357.544z
		 M727.62,392.964h-85.074h-57.257v-17.551v-73.441h36.724h20.541h85.074v90.992H727.62z M747.128,355.921h-4.551v-16.254h4.551
		V355.921z M747.128,332.522h-4.551v-6.492h4.551V332.522z"/>
</g>
<g>
	<g>
		<defs>
			<rect id="SVGID_27_" x="453.911" y="148.693" width="140.544" height="140.544"/>
		</defs>
		<clipPath id="SVGID_28_">
			<use xlink:href="#SVGID_27_"  overflow="visible"/>
		</clipPath>
		<g clip-path="url(#SVGID_28_)">
			<defs>
				<rect id="SVGID_29_" x="453.911" y="148.693" width="140.544" height="140.544"/>
			</defs>
			<clipPath id="SVGID_30_">
				<use xlink:href="#SVGID_29_"  overflow="visible"/>
			</clipPath>
			<g clip-path="url(#SVGID_30_)">
				<defs>
					<rect id="SVGID_31_" x="453.911" y="148.693" width="140.544" height="140.544"/>
				</defs>
				<clipPath id="SVGID_32_">
					<use xlink:href="#SVGID_31_"  overflow="visible"/>
				</clipPath>
				<g clip-path="url(#SVGID_32_)">
					<g>
						<defs>
							<rect id="SVGID_33_" x="453.384" y="151.45" width="141.774" height="138.48"/>
						</defs>
						<clipPath id="SVGID_34_">
							<use xlink:href="#SVGID_33_"  overflow="visible"/>
						</clipPath>
						<g opacity="0.65" clip-path="url(#SVGID_34_)">
							<g>
								<defs>
									<rect id="SVGID_35_" x="453.384" y="151.45" width="141.774" height="138.48"/>
								</defs>
								<clipPath id="SVGID_36_">
									<use xlink:href="#SVGID_35_"  overflow="visible"/>
								</clipPath>
							</g>
						</g>
					</g>
				</g>
			</g>
			
				<rect x="458.325" y="154.743" clip-path="url(#SVGID_30_)" fill-rule="evenodd" clip-rule="evenodd" fill="#512F1E" width="131.761" height="128.466"/>
			<g clip-path="url(#SVGID_30_)">
				<defs>
					<rect id="SVGID_37_" x="453.911" y="148.693" width="140.544" height="140.544"/>
				</defs>
				<clipPath id="SVGID_38_">
					<use xlink:href="#SVGID_37_"  overflow="visible"/>
				</clipPath>
				<g opacity="0.35" clip-path="url(#SVGID_38_)">
					<g>
						<defs>
							<rect id="SVGID_39_" x="458.325" y="164.076" width="131.761" height="117.486"/>
						</defs>
						<clipPath id="SVGID_40_">
							<use xlink:href="#SVGID_39_"  overflow="visible"/>
						</clipPath>
						<g clip-path="url(#SVGID_40_)">
							<defs>
								<path id="SVGID_41_" d="M458.325,278.268h131.761v3.294H458.325V278.268z M458.325,263.994h131.761v3.294H458.325V263.994z
									 M458.325,235.446h131.761v3.294H458.325V235.446z M458.325,221.172h131.761v3.294H458.325V221.172z M458.325,206.898
									h131.761v3.294H458.325V206.898z M458.325,192.624h131.761v3.294H458.325V192.624z M458.325,178.35h131.761v3.294H458.325
									V178.35z M458.325,164.076h131.761v3.294H458.325V164.076z M458.325,249.72h131.761v3.294H458.325V249.72z"/>
							</defs>
							<clipPath id="SVGID_42_">
								<use xlink:href="#SVGID_41_"  overflow="visible"/>
							</clipPath>
							<defs>
								
									<filter id="Adobe_OpacityMaskFilter_2_" filterUnits="userSpaceOnUse" x="458.325" y="164.076" width="131.761" height="117.486">
									<feColorMatrix  type="matrix" values="1 0 0 0 0  0 1 0 0 0  0 0 1 0 0  0 0 0 1 0"/>
								</filter>
							</defs>
							<mask maskUnits="userSpaceOnUse" x="458.325" y="164.076" width="131.761" height="117.486" id="SVGID_43_">
								<g filter="url(#Adobe_OpacityMaskFilter_2_)">
									
										<linearGradient id="SVGID_44_" gradientUnits="userSpaceOnUse" x1="-63.8484" y1="-1.4325" x2="-63.2994" y2="-1.4325" gradientTransform="matrix(240.0005 0 0 -240.0005 15781.9707 -120.9814)">
										<stop  offset="0" style="stop-color:#1A1A1A"/>
										<stop  offset="0.501" style="stop-color:#FFFFFF"/>
										<stop  offset="1" style="stop-color:#1A1A1A"/>
									</linearGradient>
									<rect x="458.325" y="164.076" clip-path="url(#SVGID_42_)" fill="url(#SVGID_44_)" width="131.761" height="117.486"/>
								</g>
							</mask>
							
								<linearGradient id="SVGID_45_" gradientUnits="userSpaceOnUse" x1="-63.8484" y1="-1.4325" x2="-63.2994" y2="-1.4325" gradientTransform="matrix(240.0005 0 0 -240.0005 15781.9707 -120.9814)">
								<stop  offset="0" style="stop-color:#F8AA1B"/>
								<stop  offset="0.501" style="stop-color:#EFA41D"/>
								<stop  offset="1" style="stop-color:#F8AA1B"/>
							</linearGradient>
							
								<rect x="458.325" y="164.076" clip-path="url(#SVGID_42_)" mask="url(#SVGID_43_)" fill="url(#SVGID_45_)" width="131.761" height="117.486"/>
						</g>
					</g>
				</g>
				<g opacity="0.18" clip-path="url(#SVGID_38_)">
					<g>
						<defs>
							<rect id="SVGID_46_" x="458.325" y="156.939" width="131.761" height="117.486"/>
						</defs>
						<clipPath id="SVGID_47_">
							<use xlink:href="#SVGID_46_"  overflow="visible"/>
						</clipPath>
						<path clip-path="url(#SVGID_47_)" fill-rule="evenodd" clip-rule="evenodd" fill="#F8AA1B" d="M458.325,256.857h131.761v3.294
							H458.325V256.857z M458.325,271.131h131.761v3.294H458.325V271.131z M458.325,228.309h131.761v3.294H458.325V228.309z
							 M458.325,242.583h131.761v3.294H458.325V242.583z M458.325,214.035h131.761v3.294H458.325V214.035z M458.325,199.761h131.761
							v3.294H458.325V199.761z M458.325,185.487h131.761v3.294H458.325V185.487z M458.325,171.213h131.761v3.294H458.325V171.213z
							 M458.325,156.939h131.761v3.294H458.325V156.939z"/>
					</g>
				</g>
				<path clip-path="url(#SVGID_38_)" fill-rule="evenodd" clip-rule="evenodd" fill="#F8AA1B" d="M508.833,245.167
					c0,0.533-0.088,0.709-0.708,0.709h-8.466c-0.533,0-0.708-0.264-0.708-0.709v-57.875c0-0.533,0.264-0.709,0.708-0.709h8.553
					c0.445,0,0.62,0.176,0.62,0.62V245.167z M519.813,211.196c0-0.533,0-2.389-0.263-5.479c0-0.357-0.132-0.445,0.22-0.62
					c4.507-1.68,10.601-3.536,16.701-3.536c7.517,0,15.735,2.915,15.735,15.823v27.784c0,0.533-0.175,0.709-0.62,0.709h-8.553
					c-0.533,0-0.709-0.264-0.709-0.709v-27.082c0-5.122-2.114-7.95-7.418-7.95c-2.3,0-4.167,0.439-5.759,0.972v34.147
					c0,0.357-0.175,0.62-0.533,0.62h-8.18c-0.445,0-0.62-0.176-0.62-0.62V211.196z"/>
			</g>
		</g>
	</g>
</g>
</svg>
