<svg xmlns="http://www.w3.org/2000/svg" xmlns:xlink="http://www.w3.org/1999/xlink" width="771.328" height="400"><defs><path id="a" d="M30.637 39.545h175.455v175.455h-175.455z"/></defs><clipPath id="b"><use xlink:href="#a" overflow="visible"/></clipPath><g clip-path="url(#b)"><defs><path id="c" d="M30.637 39.545h175.455v175.455h-175.455z"/></defs><clipPath id="d"><use xlink:href="#c" overflow="visible"/></clipPath><g clip-path="url(#d)"><defs><path id="e" d="M30.637 39.545h175.455v175.455h-175.455z"/></defs><clipPath id="f"><use xlink:href="#e" overflow="visible"/></clipPath><g clip-path="url(#f)"><defs><path id="g" d="M29.979 42.987h176.989v172.878h-176.989z"/></defs><clipPath id="h"><use xlink:href="#g" overflow="visible"/></clipPath><g opacity=".65" clip-path="url(#h)"><defs><path id="i" d="M29.979 42.987h176.989v172.878h-176.989z"/></defs><clipPath><use xlink:href="#i" overflow="visible"/></clipPath></g></g></g><path clip-path="url(#d)" fill-rule="evenodd" clip-rule="evenodd" fill="#1C3A37" d="M36.147 47.099h164.488v160.376h-164.488z"/><g clip-path="url(#d)"><defs><path id="j" d="M30.637 39.545h175.455v175.455h-175.455z"/></defs><clipPath id="k"><use xlink:href="#j" overflow="visible"/></clipPath><g opacity=".18" clip-path="url(#k)"><defs><path id="l" d="M36.148 58.75h164.488v146.669h-164.488z"/></defs><clipPath id="m"><use xlink:href="#l" overflow="visible"/></clipPath><g clip-path="url(#m)"><defs><path id="n" d="M36.147 201.307h164.489v4.112h-164.489v-4.112zm0-17.82h164.489v4.112h-164.489v-4.112zm0-35.639h164.489v4.112h-164.489v-4.112zm0-17.819h164.489v4.112h-164.489v-4.112zm0-17.82h164.489v4.112h-164.489v-4.112zm0-17.82h164.489v4.112h-164.489v-4.112zm0-17.819h164.489v4.112h-164.489v-4.112zm0-17.82h164.489v4.112h-164.489v-4.112zm0 106.918h164.489v4.112h-164.489v-4.112z"/></defs><clipPath id="p"><use xlink:href="#n" overflow="visible"/></clipPath><defs><filter id="o" filterUnits="userSpaceOnUse" x="36.147" y="58.75" width="164.489" height="146.669"><feColorMatrix values="1 0 0 0 0 0 1 0 0 0 0 0 1 0 0 0 0 0 1 0"/></filter></defs><mask maskUnits="userSpaceOnUse" x="36.147" y="58.75" width="164.489" height="146.669" id="r"><g filter="url(#o)"><linearGradient id="q" gradientUnits="userSpaceOnUse" x1="-65.608" y1="-1.054" x2="-64.922" y2="-1.054" gradientTransform="matrix(240 0 0 -240 15781.902 -120.979)"><stop offset="0" stop-color="#1A1A1A"/><stop offset=".483" stop-color="#fff"/><stop offset="1" stop-color="#1A1A1A"/></linearGradient><path clip-path="url(#p)" fill="url(#q)" d="M36.147 58.75h164.489v146.669h-164.489z"/></g></mask><linearGradient id="s" gradientUnits="userSpaceOnUse" x1="-65.608" y1="-1.054" x2="-64.922" y2="-1.054" gradientTransform="matrix(240 0 0 -240 15781.903 -120.979)"><stop offset="0" stop-color="#42C1C7"/><stop offset=".483" stop-color="#42C1C7"/><stop offset="1" stop-color="#42C1C7"/></linearGradient><path clip-path="url(#p)" mask="url(#r)" fill="url(#s)" d="M36.147 58.75h164.489v146.669h-164.489z"/></g></g><g opacity=".3" clip-path="url(#k)"><defs><path id="t" d="M36.148 49.84h164.488v146.669h-164.488z"/></defs><clipPath id="u"><use xlink:href="#t" overflow="visible"/></clipPath><g clip-path="url(#u)"><defs><path id="v" d="M36.147 174.578h164.489v4.112h-164.489v-4.112zm0 17.819h164.489v4.112h-164.489v-4.112zm0-53.459h164.489v4.112h-164.489v-4.112zm0 17.82h164.489v4.112h-164.489v-4.112zm0-35.639h164.489v4.112h-164.489v-4.112zm0-17.82h164.489v4.112h-164.489v-4.112zm0-17.819h164.489v4.112h-164.489v-4.112zm0-17.82h164.489v4.112h-164.489v-4.112zm0-17.82h164.489v4.112h-164.489v-4.112z"/></defs><clipPath id="x"><use xlink:href="#v" overflow="visible"/></clipPath><defs><filter id="w" filterUnits="userSpaceOnUse" x="36.147" y="49.84" width="164.489" height="146.669"><feColorMatrix values="1 0 0 0 0 0 1 0 0 0 0 0 1 0 0 0 0 0 1 0"/></filter></defs><mask maskUnits="userSpaceOnUse" x="36.147" y="49.84" width="164.489" height="146.669" id="z"><g filter="url(#w)"><linearGradient id="y" gradientUnits="userSpaceOnUse" x1="-65.608" y1="-1.071" x2="-64.922" y2="-1.071" gradientTransform="matrix(240 0 0 -240 15781.902 -133.979)"><stop offset="0" stop-color="#1A1A1A"/><stop offset=".483" stop-color="#fff"/><stop offset="1" stop-color="#1A1A1A"/></linearGradient><path clip-path="url(#x)" fill="url(#y)" d="M36.147 49.84h164.489v146.669h-164.489z"/></g></mask><linearGradient id="A" gradientUnits="userSpaceOnUse" x1="-65.608" y1="-1.071" x2="-64.922" y2="-1.071" gradientTransform="matrix(240 0 0 -240 15781.903 -133.979)"><stop offset="0" stop-color="#42C1C7"/><stop offset=".483" stop-color="#42C1C7"/><stop offset="1" stop-color="#42C1C7"/></linearGradient><path clip-path="url(#x)" mask="url(#z)" fill="url(#A)" d="M36.147 49.84h164.489v146.669h-164.489z"/></g></g><path clip-path="url(#k)" fill-rule="evenodd" clip-rule="evenodd" fill="#42C1C7" d="M114.965 158.656c0 .659-.219.995-.774 1.213-2.865 1.214-7.532 1.652-12.282 1.652-17.21 0-32.439-11.254-32.439-37.736 0-22.728 13.461-37.956 33.987-37.956 5.408 0 9.438.555 11.528 1.549.555.219.665.548.665 1.213v9.486c0 .884-.439.884-.774.774-2.646-1.322-6.676-2.097-11.309-2.097-12.912 0-21.521 9.821-21.521 26.702 0 20.856 11.809 27.037 21.521 27.037 4.414 0 7.423-.336 10.623-1.439.445-.22.774-.22.774.555v9.047zm52.424-25.488c0 17.209-8.828 28.353-22.617 28.353-16.114 0-22.843-13.679-22.843-28.243 0-16.114 8.608-28.025 22.952-28.025 14.455 0 22.508 11.363 22.508 27.915m-33.323 0c0 10.588 3.748 17.984 10.814 17.984 6.066 0 10.37-5.847 10.37-17.765 0-10.041-2.975-17.875-10.699-17.875-6.182 0-10.485 6.066-10.485 17.656"/></g></g><path fill="#fff" d="M760.594 293.654h-118.048v-169.884c0-2.446-2.229-4.434-4.962-4.434h-156.07v-93.136c0-4.1-3.324-7.424-7.416-7.424h-457.01c-4.1 0-7.424 3.324-7.424 7.424v309.359c0 4.1 3.324 7.424 7.424 7.424h173.1c-2.602 31.094-11.874 54.097-22.901 54.097v3.961h156.629v-3.961c-11.035 0-20.3-23.002-22.909-54.097h124.719v53.631c0 2.438 2.213 4.419 4.962 4.419h329.914c2.741.008 4.955-1.972 4.955-4.411v-98.54c-.001-2.447-2.214-4.428-4.963-4.428zm-226.008-167.648c3.324 0 6.018 2.687 6.018 6.011 0 3.316-2.703 6.011-6.018 6.011-3.316 0-6.003-2.695-6.003-6.011-.008-3.324 2.679-6.011 6.003-6.011zm-508.785 160.372v-251.519h441.3v84.484h-36.414c-2.749 0-4.962 1.98-4.962 4.434v162.608h-399.924v-.007zm421.373 56.605v-198.952h174.832v149.616h-68.316c-2.734 0-4.962 1.98-4.962 4.426v77.34h-101.554v-32.43zm121.216 14.561c-5.382 0-9.754-4.364-9.754-9.754s4.364-9.746 9.754-9.746 9.754 4.364 9.754 9.746-4.364 9.754-9.754 9.754zm159.23 35.42h-142.331v-90.992h142.339v90.992h-.008zm19.508-37.043h-4.551v-16.254h4.551v16.254zm0-23.399h-4.551v-6.492h4.551v6.492z"/><defs><path id="B" d="M453.911 148.693h140.544v140.544h-140.544z"/></defs><clipPath id="C"><use xlink:href="#B" overflow="visible"/></clipPath><g clip-path="url(#C)"><defs><path id="D" d="M453.911 148.693h140.544v140.544h-140.544z"/></defs><clipPath id="E"><use xlink:href="#D" overflow="visible"/></clipPath><g clip-path="url(#E)"><defs><path id="F" d="M453.911 148.693h140.544v140.544h-140.544z"/></defs><clipPath id="G"><use xlink:href="#F" overflow="visible"/></clipPath><g clip-path="url(#G)"><defs><path id="H" d="M453.384 151.45h141.774v138.48h-141.774z"/></defs><clipPath id="I"><use xlink:href="#H" overflow="visible"/></clipPath><g opacity=".65" clip-path="url(#I)"><defs><path id="J" d="M453.384 151.45h141.774v138.48h-141.774z"/></defs><clipPath><use xlink:href="#J" overflow="visible"/></clipPath></g></g></g><path clip-path="url(#E)" fill-rule="evenodd" clip-rule="evenodd" fill="#512F1E" d="M458.325 154.743h131.761v128.466h-131.761z"/><g clip-path="url(#E)"><defs><path id="K" d="M453.911 148.693h140.544v140.544h-140.544z"/></defs><clipPath id="L"><use xlink:href="#K" overflow="visible"/></clipPath><g opacity=".35" clip-path="url(#L)"><defs><path id="M" d="M458.325 164.076h131.761v117.486h-131.761z"/></defs><clipPath id="N"><use xlink:href="#M" overflow="visible"/></clipPath><g clip-path="url(#N)"><defs><path id="O" d="M458.325 278.268h131.761v3.294h-131.761v-3.294zm0-14.274h131.761v3.294h-131.761v-3.294zm0-28.548h131.761v3.294h-131.761v-3.294zm0-14.274h131.761v3.294h-131.761v-3.294zm0-14.274h131.761v3.294h-131.761v-3.294zm0-14.274h131.761v3.294h-131.761v-3.294zm0-14.274h131.761v3.294h-131.761v-3.294zm0-14.274h131.761v3.294h-131.761v-3.294zm0 85.644h131.761v3.294h-131.761v-3.294z"/></defs><clipPath id="Q"><use xlink:href="#O" overflow="visible"/></clipPath><defs><filter id="P" filterUnits="userSpaceOnUse" x="458.325" y="164.076" width="131.761" height="117.486"><feColorMatrix values="1 0 0 0 0 0 1 0 0 0 0 0 1 0 0 0 0 0 1 0"/></filter></defs><mask maskUnits="userSpaceOnUse" x="458.325" y="164.076" width="131.761" height="117.486" id="S"><g filter="url(#P)"><linearGradient id="R" gradientUnits="userSpaceOnUse" x1="-63.848" y1="-1.433" x2="-63.299" y2="-1.433" gradientTransform="matrix(240 0 0 -240 15781.971 -120.981)"><stop offset="0" stop-color="#1A1A1A"/><stop offset=".501" stop-color="#fff"/><stop offset="1" stop-color="#1A1A1A"/></linearGradient><path clip-path="url(#Q)" fill="url(#R)" d="M458.325 164.076h131.761v117.486h-131.761z"/></g></mask><linearGradient id="T" gradientUnits="userSpaceOnUse" x1="-63.848" y1="-1.433" x2="-63.299" y2="-1.433" gradientTransform="matrix(240 0 0 -240 15781.971 -120.981)"><stop offset="0" stop-color="#F8AA1B"/><stop offset=".501" stop-color="#EFA41D"/><stop offset="1" stop-color="#F8AA1B"/></linearGradient><path clip-path="url(#Q)" mask="url(#S)" fill="url(#T)" d="M458.325 164.076h131.761v117.486h-131.761z"/></g></g><g opacity=".18" clip-path="url(#L)"><defs><path id="U" d="M458.325 156.939h131.761v117.486h-131.761z"/></defs><clipPath id="V"><use xlink:href="#U" overflow="visible"/></clipPath><path clip-path="url(#V)" fill-rule="evenodd" clip-rule="evenodd" fill="#F8AA1B" d="M458.325 256.857h131.761v3.294h-131.761v-3.294zm0 14.274h131.761v3.294h-131.761v-3.294zm0-42.822h131.761v3.294h-131.761v-3.294zm0 14.274h131.761v3.294h-131.761v-3.294zm0-28.548h131.761v3.294h-131.761v-3.294zm0-14.274h131.761v3.294h-131.761v-3.294zm0-14.274h131.761v3.294h-131.761v-3.294zm0-14.274h131.761v3.294h-131.761v-3.294zm0-14.274h131.761v3.294h-131.761v-3.294z"/></g><path clip-path="url(#L)" fill-rule="evenodd" clip-rule="evenodd" fill="#F8AA1B" d="M508.833 245.167c0 .533-.088.709-.708.709h-8.466c-.533 0-.708-.264-.708-.709v-57.875c0-.533.264-.709.708-.709h8.553c.445 0 .62.176.62.62v57.964zm10.98-33.971c0-.533 0-2.389-.263-5.479 0-.357-.132-.445.22-.62 4.507-1.68 10.601-3.536 16.701-3.536 7.517 0 15.735 2.915 15.735 15.823v27.784c0 .533-.175.709-.62.709h-8.553c-.533 0-.709-.264-.709-.709v-27.082c0-5.122-2.114-7.95-7.418-7.95-2.3 0-4.167.439-5.759.972v34.147c0 .357-.175.62-.533.62h-8.18c-.445 0-.62-.176-.62-.62v-34.059z"/></g></g></svg>