<svg xmlns="http://www.w3.org/2000/svg" xmlns:xlink="http://www.w3.org/1999/xlink" width="480.367" height="400"><g fill="#fff"><path d="M470.088 20.098c-.447-5.943-5.363-10.643-11.421-10.643h-437.333c-6.058 0-10.975 4.7-11.421 10.643l-.087 295.49c0 6.357 5.151 11.509 11.509 11.509h437.333c6.357 0 11.509-5.151 11.509-11.509l-.089-295.49zm-18.326 251.756h-423.523v-243.985h423.522v243.985zM313.657 382.338c-18.414-4.603-23.018-18.414-23.018-36.828v-4.604h-101.278v4.604c0 18.414-4.604 32.225-23.018 36.828-4.465 1.114-4.604 9.207 0 9.207h147.313c4.604 0 4.466-8.093.001-9.207z"/></g><defs><path id="a" d="M38.637 38.545h175.455v175.455h-175.455z"/></defs><clipPath id="b"><use xlink:href="#a" overflow="visible"/></clipPath><g clip-path="url(#b)"><defs><path id="c" d="M38.637 38.545h175.455v175.455h-175.455z"/></defs><clipPath id="d"><use xlink:href="#c" overflow="visible"/></clipPath><g clip-path="url(#d)"><defs><path id="e" d="M38.637 38.545h175.455v175.455h-175.455z"/></defs><clipPath id="f"><use xlink:href="#e" overflow="visible"/></clipPath><g clip-path="url(#f)"><defs><path id="g" d="M37.979 41.987h176.989v172.878h-176.989z"/></defs><clipPath id="h"><use xlink:href="#g" overflow="visible"/></clipPath><g opacity=".65" clip-path="url(#h)"><defs><path id="i" d="M37.979 41.987h176.989v172.878h-176.989z"/></defs><clipPath><use xlink:href="#i" overflow="visible"/></clipPath></g></g></g><path clip-path="url(#d)" fill-rule="evenodd" clip-rule="evenodd" fill="#1C3A37" d="M44.147 46.099h164.488v160.376h-164.488z"/><g clip-path="url(#d)"><defs><path id="j" d="M38.637 38.545h175.455v175.455h-175.455z"/></defs><clipPath id="k"><use xlink:href="#j" overflow="visible"/></clipPath><g opacity=".18" clip-path="url(#k)"><defs><path id="l" d="M44.148 57.75h164.488v146.669h-164.488z"/></defs><clipPath id="m"><use xlink:href="#l" overflow="visible"/></clipPath><g clip-path="url(#m)"><defs><path id="n" d="M44.147 200.307h164.489v4.112h-164.489v-4.112zm0-17.82h164.489v4.112h-164.489v-4.112zm0-35.639h164.489v4.112h-164.489v-4.112zm0-17.819h164.489v4.112h-164.489v-4.112zm0-17.82h164.489v4.112h-164.489v-4.112zm0-17.82h164.489v4.112h-164.489v-4.112zm0-17.819h164.489v4.112h-164.489v-4.112zm0-17.82h164.489v4.112h-164.489v-4.112zm0 106.918h164.489v4.112h-164.489v-4.112z"/></defs><clipPath id="p"><use xlink:href="#n" overflow="visible"/></clipPath><defs><filter id="o" filterUnits="userSpaceOnUse" x="44.147" y="57.75" width="164.489" height="146.669"><feColorMatrix values="1 0 0 0 0 0 1 0 0 0 0 0 1 0 0 0 0 0 1 0"/></filter></defs><mask maskUnits="userSpaceOnUse" x="44.147" y="57.75" width="164.489" height="146.669" id="r"><g filter="url(#o)"><linearGradient id="q" gradientUnits="userSpaceOnUse" x1="-65.574" y1="-1.05" x2="-64.889" y2="-1.05" gradientTransform="matrix(240 0 0 -240 15781.902 -120.979)"><stop offset="0" stop-color="#1A1A1A"/><stop offset=".483" stop-color="#fff"/><stop offset="1" stop-color="#1A1A1A"/></linearGradient><path clip-path="url(#p)" fill="url(#q)" d="M44.147 57.75h164.489v146.669h-164.489z"/></g></mask><linearGradient id="s" gradientUnits="userSpaceOnUse" x1="-65.574" y1="-1.05" x2="-64.889" y2="-1.05" gradientTransform="matrix(240 0 0 -240 15781.903 -120.979)"><stop offset="0" stop-color="#42C1C7"/><stop offset=".483" stop-color="#42C1C7"/><stop offset="1" stop-color="#42C1C7"/></linearGradient><path clip-path="url(#p)" mask="url(#r)" fill="url(#s)" d="M44.147 57.75h164.489v146.669h-164.489z"/></g></g><g opacity=".3" clip-path="url(#k)"><defs><path id="t" d="M44.148 48.84h164.488v146.669h-164.488z"/></defs><clipPath id="u"><use xlink:href="#t" overflow="visible"/></clipPath><g clip-path="url(#u)"><defs><path id="v" d="M44.147 173.578h164.489v4.112h-164.489v-4.112zm0 17.819h164.489v4.112h-164.489v-4.112zm0-53.459h164.489v4.112h-164.489v-4.112zm0 17.82h164.489v4.112h-164.489v-4.112zm0-35.639h164.489v4.112h-164.489v-4.112zm0-17.82h164.489v4.112h-164.489v-4.112zm0-17.819h164.489v4.112h-164.489v-4.112zm0-17.82h164.489v4.112h-164.489v-4.112zm0-17.82h164.489v4.112h-164.489v-4.112z"/></defs><clipPath id="x"><use xlink:href="#v" overflow="visible"/></clipPath><defs><filter id="w" filterUnits="userSpaceOnUse" x="44.147" y="48.84" width="164.489" height="146.669"><feColorMatrix values="1 0 0 0 0 0 1 0 0 0 0 0 1 0 0 0 0 0 1 0"/></filter></defs><mask maskUnits="userSpaceOnUse" x="44.147" y="48.84" width="164.489" height="146.669" id="z"><g filter="url(#w)"><linearGradient id="y" gradientUnits="userSpaceOnUse" x1="-65.574" y1="-1.067" x2="-64.889" y2="-1.067" gradientTransform="matrix(240 0 0 -240 15781.902 -133.979)"><stop offset="0" stop-color="#1A1A1A"/><stop offset=".483" stop-color="#fff"/><stop offset="1" stop-color="#1A1A1A"/></linearGradient><path clip-path="url(#x)" fill="url(#y)" d="M44.147 48.84h164.489v146.669h-164.489z"/></g></mask><linearGradient id="A" gradientUnits="userSpaceOnUse" x1="-65.574" y1="-1.067" x2="-64.889" y2="-1.067" gradientTransform="matrix(240 0 0 -240 15781.903 -133.979)"><stop offset="0" stop-color="#42C1C7"/><stop offset=".483" stop-color="#42C1C7"/><stop offset="1" stop-color="#42C1C7"/></linearGradient><path clip-path="url(#x)" mask="url(#z)" fill="url(#A)" d="M44.147 48.84h164.489v146.669h-164.489z"/></g></g><path clip-path="url(#k)" fill-rule="evenodd" clip-rule="evenodd" fill="#42C1C7" d="M122.965 157.656c0 .659-.219.995-.774 1.213-2.865 1.214-7.532 1.652-12.282 1.652-17.21 0-32.439-11.254-32.439-37.736 0-22.728 13.461-37.956 33.987-37.956 5.408 0 9.438.555 11.528 1.549.555.219.665.548.665 1.213v9.486c0 .884-.439.884-.774.774-2.646-1.322-6.676-2.097-11.309-2.097-12.912 0-21.521 9.821-21.521 26.702 0 20.856 11.809 27.037 21.521 27.037 4.414 0 7.423-.336 10.623-1.439.445-.22.774-.22.774.555v9.047zm52.424-25.488c0 17.209-8.828 28.353-22.617 28.353-16.114 0-22.843-13.679-22.843-28.243 0-16.114 8.608-28.025 22.952-28.025 14.455 0 22.508 11.363 22.508 27.915m-33.323 0c0 10.588 3.748 17.984 10.814 17.984 6.066 0 10.37-5.847 10.37-17.765 0-10.041-2.975-17.875-10.699-17.875-6.182 0-10.485 6.066-10.485 17.656"/></g></g></svg>