<svg xmlns="http://www.w3.org/2000/svg" xmlns:xlink="http://www.w3.org/1999/xlink" width="387.037" height="612"><path fill="#fff" d="M342.765 9.713l-297.319 1.079c-20.977.064-37.93 17.148-37.849 38.115l1.885 518.569c.087 20.996 17.145 37.943 38.125 37.866l297.302-1.09c20.985-.069 37.938-17.153 37.853-38.128l-1.868-518.557c-.09-20.985-17.153-37.94-38.129-37.854zm-115.407 522.043c.079 20.612-16.564 37.375-37.185 37.459-20.612.079-37.38-16.573-37.446-37.181-.088-20.628 16.571-37.401 37.18-37.467 20.622-.063 37.393 16.576 37.451 37.189zm103.961-69.663l-270.628.981-1.447-396.625 270.628-.981 1.447 396.625z"/><defs><path id="a" d="M71.825 78.047h231.387v231.387h-231.387z"/></defs><clipPath id="b"><use xlink:href="#a" overflow="visible"/></clipPath><g clip-path="url(#b)"><defs><path id="c" d="M71.825 78.047h231.387v231.387h-231.387z"/></defs><clipPath id="d"><use xlink:href="#c" overflow="visible"/></clipPath><g clip-path="url(#d)"><defs><path id="e" d="M71.825 78.047h231.387v231.387h-231.387z"/></defs><clipPath id="f"><use xlink:href="#e" overflow="visible"/></clipPath><g clip-path="url(#f)"><defs><path id="g" d="M70.958 82.585h233.411v227.988h-233.411z"/></defs><clipPath id="h"><use xlink:href="#g" overflow="visible"/></clipPath><g opacity=".65" clip-path="url(#h)"><defs><path id="i" d="M70.958 82.585h233.411v227.988h-233.411z"/></defs><clipPath><use xlink:href="#i" overflow="visible"/></clipPath></g></g></g><path clip-path="url(#d)" fill-rule="evenodd" clip-rule="evenodd" fill="#512F1E" d="M79.092 88.007h216.926v211.502h-216.926z"/><g clip-path="url(#d)"><defs><path id="j" d="M71.825 78.047h231.387v231.387h-231.387z"/></defs><clipPath id="k"><use xlink:href="#j" overflow="visible"/></clipPath><g opacity=".35" clip-path="url(#k)"><defs><path id="l" d="M79.092 103.372h216.926v193.425h-216.926z"/></defs><clipPath id="m"><use xlink:href="#l" overflow="visible"/></clipPath><g clip-path="url(#m)"><defs><path id="n" d="M79.092 291.374h216.926v5.423h-216.926v-5.423zm0-23.5h216.926v5.423h-216.926v-5.423zm0-47h216.926v5.423h-216.926v-5.423zm0-23.501h216.926v5.423h-216.926v-5.423zm0-23.5h216.926v5.423h-216.926v-5.423zm0-23.5h216.926v5.423h-216.926v-5.423zm0-23.5h216.926v5.423h-216.926v-5.423zm0-23.501h216.926v5.423h-216.926v-5.423zm0 141.002h216.926v5.423h-216.926v-5.423z"/></defs><clipPath id="p"><use xlink:href="#n" overflow="visible"/></clipPath><defs><filter id="o" filterUnits="userSpaceOnUse" x="79.092" y="103.372" width="216.926" height="193.425"><feColorMatrix values="1 0 0 0 0 0 1 0 0 0 0 0 1 0 0 0 0 0 1 0"/></filter></defs><mask maskUnits="userSpaceOnUse" x="79.092" y="103.372" width="216.926" height="193.425" id="r"><g filter="url(#o)"><linearGradient id="q" gradientUnits="userSpaceOnUse" x1="-120.901" y1="-1.338" x2="-119.997" y2="-1.338" gradientTransform="matrix(240 0 0 -240 29095.287 -120.981)"><stop offset="0" stop-color="#1A1A1A"/><stop offset=".501" stop-color="#fff"/><stop offset="1" stop-color="#1A1A1A"/></linearGradient><path clip-path="url(#p)" fill="url(#q)" d="M79.092 103.372h216.926v193.425h-216.926z"/></g></mask><linearGradient id="s" gradientUnits="userSpaceOnUse" x1="-120.901" y1="-1.338" x2="-119.997" y2="-1.338" gradientTransform="matrix(240 0 0 -240 29095.287 -120.981)"><stop offset="0" stop-color="#F8AA1B"/><stop offset=".501" stop-color="#EFA41D"/><stop offset="1" stop-color="#F8AA1B"/></linearGradient><path clip-path="url(#p)" mask="url(#r)" fill="url(#s)" d="M79.092 103.372h216.926v193.425h-216.926z"/></g></g><g opacity=".18" clip-path="url(#k)"><defs><path id="t" d="M79.092 91.622h216.926v193.425h-216.926z"/></defs><clipPath id="u"><use xlink:href="#t" overflow="visible"/></clipPath><path clip-path="url(#u)" fill-rule="evenodd" clip-rule="evenodd" fill="#F8AA1B" d="M79.092 256.124h216.926v5.423h-216.926v-5.423zm0 23.5h216.926v5.423h-216.926v-5.423zm0-70.501h216.926v5.423h-216.926v-5.423zm0 23.501h216.926v5.423h-216.926v-5.423zm0-47.001h216.926v5.423h-216.926v-5.423zm0-23.5h216.926v5.423h-216.926v-5.423zm0-23.5h216.926v5.423h-216.926v-5.423zm0-23.501h216.926v5.423h-216.926v-5.423zm0-23.5h216.926v5.423h-216.926v-5.423z"/></g><path clip-path="url(#k)" fill-rule="evenodd" clip-rule="evenodd" fill="#F8AA1B" d="M162.247 236.879c0 .878-.145 1.167-1.166 1.167h-13.937c-.877 0-1.166-.434-1.166-1.167v-95.283c0-.878.434-1.167 1.166-1.167h14.082c.732 0 1.021.289 1.021 1.021v95.429zm18.077-55.929c0-.878 0-3.933-.434-9.02 0-.587-.217-.732.362-1.021 7.421-2.766 17.453-5.822 27.495-5.822 12.376 0 25.905 4.799 25.905 26.05v45.742c0 .878-.288 1.167-1.02 1.167h-14.082c-.878 0-1.167-.434-1.167-1.167v-44.586c0-8.433-3.48-13.088-12.212-13.088-3.787 0-6.861.723-9.481 1.601v56.219c0 .587-.288 1.021-.877 1.021h-13.467c-.732 0-1.021-.289-1.021-1.021v-56.075z"/></g></g></svg>