<svg xmlns="http://www.w3.org/2000/svg" width="100" height="100"><path d="M50.717 2.495c-29.288 0-47.692 6-47.692 10.833 0 5.932 16.029 19.893 20.167 23.667 4.712 4.299 16.044 16.058 16.5 18.001.147 2.147 2.002 35.008 2.002 35.008s-.168 5.5 8.998 5.5c9.166 0 8.498-5.334 8.498-5.334s2.169-32.674 2.169-34.84 8.333-10.835 18.5-20.002c10.167-9.167 18.167-15.758 18.167-22-.001-5.029-18.022-10.833-47.309-10.833zm-.236 18.588c-21.805 0-39.481-3.118-39.481-6.963s17.676-7.964 39.481-7.964c21.801 0 39.478 4.119 39.478 7.964s-17.677 6.963-39.478 6.963z"/></svg>