<svg xmlns="http://www.w3.org/2000/svg" xmlns:xlink="http://www.w3.org/1999/xlink" version="1.1" id="Layer_1" x="0px" y="0px" width="100px" height="100px" viewBox="0 0 100 100" enable-background="new 0 0 100 100" xml:space="preserve">
<path fill="#000000" d="M50.717,2.495c-29.288,0-47.692,6-47.692,10.833c0,5.932,16.029,19.893,20.167,23.667  c4.712,4.299,16.044,16.058,16.5,18.001c0.147,2.147,2.002,35.008,2.002,35.008s-0.168,5.5,8.998,5.5  c9.166,0,8.498-5.334,8.498-5.334s2.169-32.674,2.169-34.84s8.333-10.835,18.5-20.002c10.167-9.167,18.167-15.758,18.167-22  C98.025,8.299,80.004,2.495,50.717,2.495z M50.481,21.083C28.676,21.083,11,17.965,11,14.12s17.676-7.964,39.481-7.964  c21.801,0,39.478,4.119,39.478,7.964S72.282,21.083,50.481,21.083z"/>
</svg>