<svg xmlns="http://www.w3.org/2000/svg" width="90" height="90" viewBox="0 -10.501 90 90" enable-background="new 0 -10.501 90 90"><path d="M65.709 10.5c1.17 2.657 1.928 7.07.797 10.301 4.625 3.949 6.214 13.549 3.982 21.394 6.592.503 14.443-.242 19.512 1.781-4.738-.609-11.209-1.804-17.32-1.388-1.158.079-2.874-.044-2.79 1.585 7.075.556 14.104 1.16 19.913 2.973-5.761-.941-12.754-2.374-19.913-2.574-2.957 5.835-8.907 8.703-17.122 9.307.883 1.921 2.574 2.653 2.987 5.744.616 4.618-.964 11.381.595 14.459.748 1.475 1.967 1.514 2.789 2.775-2.012 2.381-7.001-.267-7.568-2.775-.973-4.295 1.482-10.954-1.193-13.865.189 4.684-1.108 11.264.199 15.449.515 1.646 2.002 2.281 1.593 3.765-9.352.95-5.444-12.104-6.972-19.809-1.411.1-.791 2.113-.796 2.972-.04 7.524 1.54 17.844-6.57 16.837-.237-1.581 1.088-2.119 1.593-3.563 1.479-4.234-.277-10.542.401-15.651-3.095 2.333.325 10.48-1.593 14.657-1.105 2.404-4.666 3.45-7.367 2.377.352-1.79 2.2-1.501 2.984-3.169 1.096-2.325.008-5.674.399-9.111-5.729 1.143-10.173-.166-12.348-3.764-.973-1.615-1.214-3.52-2.39-4.951-1.17-1.432-3.04-1.625-3.582-3.564 7.095-1.708 7.367 7.302 13.739 7.525 1.954.071 2.97-.564 4.778-.989.506-2.272 1.589-3.966 3.186-5.153-7.929-1.085-14.477-3.554-17.522-9.504-7.208.355-13.804 1.317-19.913 2.771 5.545-2.014 12.384-2.736 19.715-2.973-.432-2.596-4.219-1.882-6.57-1.782-4.369.194-9.869.737-13.342 1.389 5.034-1.795 12.098-1.571 18.918-1.585-2.086-6.54-1.363-16.929 3.186-20.798-1.289-3.249-.889-8.563.796-11.093 5.079.228 8.159 2.443 11.35 4.557 3.957-1.125 8.118-1.685 13.54-1.387 2.28.126 4.652 1.151 6.369.989 1.685-.158 3.542-2.049 5.178-2.771 2.131-.941 3.934-1.3 6.372-1.388z"/></svg>