<?xml version="1.0" encoding="utf-8"?>
<!-- Generator: Adobe Illustrator 17.0.0, SVG Export Plug-In . SVG Version: 6.00 Build 0)  -->
<!DOCTYPE svg PUBLIC "-//W3C//DTD SVG 1.1//EN" "http://www.w3.org/Graphics/SVG/1.1/DTD/svg11.dtd">
<svg version="1.1" id="Layer_1" xmlns="http://www.w3.org/2000/svg" xmlns:xlink="http://www.w3.org/1999/xlink" x="0px" y="0px"
	 width="381.284px" height="386.175px" viewBox="0 0 381.284 386.175" enable-background="new 0 0 381.284 386.175"
	 xml:space="preserve">
<g>
	<path fill="#242022" d="M162.116,61.718c0.269-5.805-0.413-11.629,0.881-17.416c3.133-14.017,12.517-21.95,26.868-21.977
		c13.541-0.025,26.813,2.763,40.154,4.602c28.524,3.931,56.985,8.32,85.478,12.479c18.086,2.639,30.015,15.15,31.197,33.465
		c2.874,44.527,5.464,89.073,8.323,133.601c2.561,39.876,5.349,79.738,7.99,119.609c0.604,9.116-1.953,17.479-6.786,25.121
		c-4.307,6.81-10.489,11.01-18.501,12.397c-42.144,7.291-84.288,14.582-126.429,21.89c-5.315,0.922-10.626,0.952-15.899-0.118
		c-13.254-2.69-21.802-12.289-23.359-26.415c-0.564-5.121-0.643-10.296-0.943-15.446c-0.424-17.573-0.854-35.147-1.263-52.72
		c-0.035-1.508-0.063-2.992-0.928-4.309c0.04-1.497,0.127-2.994,0.112-4.49c-0.33-32.95-1.769-65.868-2.862-98.797
		c-0.8-24.11-1.644-48.219-2.468-72.329C163.16,94.481,162.638,78.099,162.116,61.718z M193.403,283.507
		c0.017,3.512,0.75,6.91,1.947,10.175c3.538,9.649,10.403,15.727,20.715,15.873c14.07,0.2,28.032-1.961,41.955-3.976
		c20.772-1.333,41.539-3.181,62.059-6.445c15.689-2.495,23.171-13.578,22.101-28.303c-2.076-28.569-3.577-57.179-5.267-85.776
		c-1.297-21.943-2.441-43.895-3.807-65.833c-0.756-12.147-10.066-23.331-20.795-24.256c-21.066-1.816-42.177-3.105-63.27-4.611
		c-13.185-1.389-26.398-2.849-39.644-2.829c-15.052,0.023-23.678,10.735-21.98,26.167c-0.042,1.156-0.159,2.315-0.116,3.467
		c1.178,31.047,2.408,62.092,3.554,93.14C191.756,234.7,192.557,259.104,193.403,283.507z"/>
	<path fill="#808184" d="M168.899,286.478c0.865,1.317,0.893,2.801,0.928,4.309c0.409,17.574,0.839,35.147,1.263,52.72
		c-13.263,0.654-26.307,3.185-39.48,4.611c-5.426,0.588-10.785,1.419-16.329,0.641c-13.746-1.931-21.88-10.813-22.382-24.821
		c-0.279-7.782-0.697-15.56-1.052-23.339c0,0,0.323,0.044,0.323,0.044s0.325-0.034,0.323-0.034
		c6.394-0.671,12.788-1.347,19.184-2.012c10.008-1.04,20.075-1.706,29.998-3.279c4.204-0.666,8.774-2.332,10.287-7.439
		c0.93-0.225,1.861-0.449,2.791-0.674C159.468,286.964,164.184,286.721,168.899,286.478z"/>
	<path fill="#808184" d="M162.116,61.718c0.522,16.382,1.044,32.764,1.566,49.145c-5.531-0.31-11.061-0.619-16.592-0.929
		c-1.035-0.156-2.07-0.312-3.105-0.468c-1.382-2.994-4.452-3.511-6.987-3.739c-16.125-1.446-32.248-3.09-48.471-3.025
		c-0.123-0.325-0.246-0.65-0.369-0.974c-0.035-5.65-0.001-11.302-0.116-16.951c-0.374-18.431,9.003-28.081,27.446-27.166
		c11.926,0.592,23.793,2.339,35.694,3.485C154.814,61.446,158.471,61.518,162.116,61.718z"/>
	<path fill="#BBBCBF" d="M91.846,300.6c-11.18,1.285-22.366,2.513-33.538,3.869c-13.045,1.584-23.422-4.934-24.305-15.558
		c-0.535-6.44-1.117-12.878-0.983-19.37c0.116-5.64-0.211-11.289-0.342-16.933c0,0,0.464,0,0.463,0
		c4.672,0.056,9.345,0.111,13.931-1.022c0.284,0.021,0.567,0.032,0.852,0.033c1.641,7.739,9.367,11.919,18.968,10.831
		c8.023-0.909,16.114-1.223,24.175-1.801c0.298,7.07,0.598,14.14,0.892,21.21c0.26,6.249-0.386,12.523,0.533,18.753l-0.325,0.034
		L91.846,300.6z"/>
	<path fill="#BBBCBF" d="M88.159,101.728c0.123,0.325,0.246,0.65,0.366,0.974c0.14,11.315,0.283,22.629,0.426,33.944
		c-8.771-0.466-17.597-0.477-26.3-1.514c-10.669-1.27-16.75,2.75-18.629,13.46c-4.32-0.002-8.64-0.003-12.959-0.005l-0.472-0.035
		c0.85-9.608-0.766-19.156-0.637-28.768c0.215-16.058,8.011-22.52,24.072-20.56C65.327,100.603,76.716,101.8,88.159,101.728z"/>
	<path fill="#E6E6E7" d="M32.68,252.608c-6.785,0.329-13.568,0.851-20.356,0.936c-8.14,0.102-12.263-4.105-12.278-12.27
		c-0.051-28.133-0.054-56.266-0.035-84.399c0.004-6.109,2.947-8.836,9.231-9.313c7.175-0.545,14.201,1.514,21.353,0.991
		c-0.003,0,0.469,0.035,0.468,0.035c-0.04,6.017-0.079,12.035-0.118,18.052c-4.996-0.02-9.994-0.104-14.99-0.043
		c-5.731,0.069-7.903,2.165-7.922,7.816c-0.056,16.157-0.063,32.314,0.004,48.471c0.023,5.711,2.926,8.584,8.591,8.7
		c5.161,0.106,10.326,0.067,15.489,0.093c0.343,6.977,0.685,13.954,1.028,20.931L32.68,252.608z"/>
	<path fill="#EB058D" d="M340.757,23.654c0.098-4.809-0.341-9.657,1.056-14.374c1.657-5.595,5.984-9.462,10.392-9.273
		c5.099,0.218,10.048,4.403,10.809,10.065c0.483,3.592,1.796,3.723,4.818,3.141c5.31-1.024,10.853,2.069,12.793,6.593
		c1.783,4.158-0.125,9.825-4.855,12.999c-9.327,6.26-20.164,8.377-30.881,10.741c-2.51,0.554-2.587-1.281-2.824-2.99
		C341.288,34.947,340.712,29.326,340.757,23.654z"/>
	<path fill="#CFD0D2" d="M193.403,283.507c9.382-0.875,18.909-1,28.111-2.795c14.904-2.908,21.249-11.878,19.272-26.896
		c-1.175-8.931-0.992-17.893-1.417-26.795c-0.593-12.421-1.07-24.888-1.531-37.328c-0.597-16.078-1.308-32.157-1.992-48.235
		c-0.609-14.308-4.888-21.373-16.758-25.315c-3.677-1.221-7.589-0.852-11.332-1.165c-6.751-0.563-13.496-2.019-20.339-1.286
		c-1.698-15.432,6.928-26.144,21.98-26.167c13.246-0.02,26.46,1.441,39.644,2.829c0.59,21.213,1.341,42.416,2.841,63.591
		c0.597,8.432,0.244,16.894,0.94,25.363c0.964,11.731,0.599,23.564,1.296,35.324c1.343,22.683,2.095,45.388,3.147,68.079
		c0.353,7.624,0.601,15.241,0.756,22.867c-13.923,2.016-27.885,4.176-41.955,3.976c-10.313-0.146-17.177-6.224-20.715-15.873
		C194.153,290.417,193.419,287.019,193.403,283.507z"/>
	<path fill="#E5E5E6" d="M147.09,109.934c6.049,7.302,5.553,15.994,6.169,24.809c1.056,15.121-0.24,30.262,0.962,45.293
		c1.076,13.465-0.182,26.932,0.949,40.305c1.39,16.444,0.073,32.891,1.042,49.285c0.358,6.057-0.31,11.771-1.456,17.576
		c-0.932,0.228-1.863,0.453-2.793,0.677c-6.757,0.552-13.507,1.457-20.271,1.575c-10.74,0.187-18.116-6.039-20.736-16.466
		c-1.11-4.416-0.544-8.918-1.259-13.331c0.145-0.363,0.289-0.727,0.433-1.09c5.459-0.063,10.875-0.19,16.349-0.796
		c12.04-1.331,17.545-7.315,17.643-19.48c0.2-24.743-0.924-49.454-1.087-74.183c-0.021-3.158,0.006-6.316-0.014-9.475
		c-0.051-7.822-5.993-15.114-13.638-15.873c-7.229-0.717-14.531-0.7-21.8-1.005c-0.138-2.48-0.082-4.989-0.447-7.436
		c-1.774-11.911,7.101-22.095,18.938-21.717c5.974,0.191,11.943,0.569,17.914,0.862C145.02,109.622,146.055,109.778,147.09,109.934z
		"/>
	<path fill="#6E6F72" d="M109.695,259.659c0.716,4.412,0.15,8.914,1.26,13.331c2.621,10.427,9.997,16.653,20.736,16.466
		c6.764-0.118,13.515-1.023,20.271-1.575c-1.513,5.108-6.083,6.773-10.287,7.44c-9.923,1.573-19.99,2.239-29.998,3.279
		c-6.396,0.664-12.79,1.34-19.184,2.012c-0.918-6.23-0.272-12.504-0.532-18.753c-0.294-7.07-0.594-14.14-0.892-21.21
		c0,0,0.286,0.09,0.286,0.09C97.402,259.252,103.552,259.513,109.695,259.659z"/>
	<path fill="#6E6F72" d="M143.985,109.466c-5.971-0.293-11.939-0.671-17.914-0.862c-11.837-0.378-20.712,9.806-18.938,21.717
		c0.364,2.446,0.309,4.955,0.447,7.436l-0.467-0.099c-6.044,0.397-11.992-0.735-17.987-1.12c0,0-0.175,0.109-0.175,0.109
		c-0.143-11.315-0.286-22.63-0.426-33.944c16.225-0.065,32.348,1.579,48.473,3.025C139.533,105.955,142.603,106.473,143.985,109.466
		z"/>
	<path fill="#F2F2F3" d="M44.466,149.568c3.993,0.009,7.987,0,11.98,0.031c6.897,0.055,11.127,4.64,11.642,11.437
		c1.218,16.092,0.189,32.238,1.175,48.286c0.632,10.302,0.493,20.563,0.711,30.839c0.145,6.815-4.167,11.133-11.065,11.405
		c-3.655,0.144-7.32,0.042-10.982,0.051c-0.285-0.001-0.569-0.012-0.853-0.032c-0.78-6.675-1.35-13.359-0.785-20.086
		c1.491,0.033,2.984,0.089,4.476,0.093c9.313,0.022,12.265-2.867,12.242-12.064c-0.035-14.069,0.17-28.133-0.897-42.194
		c-0.535-7.046-3.434-10.503-10.6-10.724c-2.155-0.066-4.314-0.004-6.471-0.001C44.848,160.928,44.657,155.248,44.466,149.568z"/>
	<path fill="#A7A9AC" d="M46.29,231.499c-0.566,6.728,0.003,13.411,0.784,20.086c-4.586,1.134-9.259,1.079-13.931,1.022
		c-0.342-6.977-0.684-13.954-1.027-20.931c0,0,0.254,0.066,0.252,0.065c4.542-0.046,9.086-0.09,13.63-0.135L46.29,231.499z"/>
	<path fill="#A7A9AC" d="M44.466,149.568c0.191,5.68,0.382,11.36,0.572,17.04l-0.276-0.132c-4.538,0.015-9.077,0.03-13.615,0.044
		l-0.204,0.119c0.039-6.017,0.079-12.035,0.119-18.052c4.32,0.002,8.64,0.003,12.96,0.005
		C44.17,148.918,44.318,149.243,44.466,149.568z"/>
	<path fill="#828386" d="M107.113,137.658c1.207,15.737,0.738,31.515,1.143,47.271c0.631,24.546,1.249,49.093,1.872,73.639
		c-0.144,0.363-0.288,0.727-0.433,1.09c-6.144-0.146-12.294-0.406-18.341,1.079c-0.743-41.4-1.486-82.8-2.229-124.2
		C95.121,136.923,101.069,138.055,107.113,137.658z"/>
	<path fill="#BBBCBF" d="M44.762,166.476c0.097,21.716,1.664,43.404,1.236,65.13c-4.544,0.045-9.088,0.089-13.63,0.135
		c-0.109-5.976-0.221-11.953-0.333-17.93c-0.296-15.763-0.593-31.527-0.889-47.29C35.686,166.506,40.224,166.491,44.762,166.476z"/>
</g>
</svg>
