<svg xmlns="http://www.w3.org/2000/svg" width="381.284" height="386.175"><path fill="#242022" d="M162.116 61.718c.269-5.805-.413-11.629.881-17.416 3.133-14.017 12.517-21.95 26.868-21.977 13.541-.025 26.813 2.763 40.154 4.602 28.524 3.931 56.985 8.32 85.478 12.479 18.086 2.639 30.015 15.15 31.197 33.465 2.874 44.527 5.464 89.073 8.323 133.601 2.561 39.876 5.349 79.738 7.99 119.609.604 9.116-1.953 17.479-6.786 25.121-4.307 6.81-10.489 11.01-18.501 12.397-42.144 7.291-84.288 14.582-126.429 21.89-5.315.922-10.626.952-15.899-.118-13.254-2.69-21.802-12.289-23.359-26.415-.564-5.121-.643-10.296-.943-15.446-.424-17.573-.854-35.147-1.263-52.72-.035-1.508-.063-2.992-.928-4.309.04-1.497.127-2.994.112-4.49-.33-32.95-1.769-65.868-2.862-98.797-.8-24.11-1.644-48.219-2.468-72.329-.521-16.384-1.043-32.766-1.565-49.147zm31.287 221.789c.017 3.512.75 6.91 1.947 10.175 3.538 9.649 10.403 15.727 20.715 15.873 14.07.2 28.032-1.961 41.955-3.976 20.772-1.333 41.539-3.181 62.059-6.445 15.689-2.495 23.171-13.578 22.101-28.303-2.076-28.569-3.577-57.179-5.267-85.776-1.297-21.943-2.441-43.895-3.807-65.833-.756-12.147-10.066-23.331-20.795-24.256-21.066-1.816-42.177-3.105-63.27-4.611-13.185-1.389-26.398-2.849-39.644-2.829-15.052.023-23.678 10.735-21.98 26.167-.042 1.156-.159 2.315-.116 3.467 1.178 31.047 2.408 62.092 3.554 93.14.901 24.4 1.702 48.804 2.548 73.207z"/><path fill="#808184" d="M168.899 286.478c.865 1.317.893 2.801.928 4.309.409 17.574.839 35.147 1.263 52.72-13.263.654-26.307 3.185-39.48 4.611-5.426.588-10.785 1.419-16.329.641-13.746-1.931-21.88-10.813-22.382-24.821-.279-7.782-.697-15.56-1.052-23.339l.323.044.323-.034c6.394-.671 12.788-1.347 19.184-2.012 10.008-1.04 20.075-1.706 29.998-3.279 4.204-.666 8.774-2.332 10.287-7.439l2.791-.674c4.715-.241 9.431-.484 14.146-.727zM162.116 61.718l1.566 49.145-16.592-.929-3.105-.468c-1.382-2.994-4.452-3.511-6.987-3.739-16.125-1.446-32.248-3.09-48.471-3.025l-.369-.974c-.035-5.65-.001-11.302-.116-16.951-.374-18.431 9.003-28.081 27.446-27.166 11.926.592 23.793 2.339 35.694 3.485 3.632.35 7.289.422 10.934.622z"/><path fill="#BBBCBF" d="M91.846 300.6c-11.18 1.285-22.366 2.513-33.538 3.869-13.045 1.584-23.422-4.934-24.305-15.558-.535-6.44-1.117-12.878-.983-19.37.116-5.64-.211-11.289-.342-16.933h.463c4.672.056 9.345.111 13.931-1.022.284.021.567.032.852.033 1.641 7.739 9.367 11.919 18.968 10.831 8.023-.909 16.114-1.223 24.175-1.801.298 7.07.598 14.14.892 21.21.26 6.249-.386 12.523.533 18.753l-.325.034-.321-.046zM88.159 101.728l.366.974c.14 11.315.283 22.629.426 33.944-8.771-.466-17.597-.477-26.3-1.514-10.669-1.27-16.75 2.75-18.629 13.46l-12.959-.005-.472-.035c.85-9.608-.766-19.156-.637-28.768.215-16.058 8.011-22.52 24.072-20.56 11.301 1.379 22.69 2.576 34.133 2.504z"/><path fill="#E6E6E7" d="M32.68 252.608c-6.785.329-13.568.851-20.356.936-8.14.102-12.263-4.105-12.278-12.27-.051-28.133-.054-56.266-.035-84.399.004-6.109 2.947-8.836 9.231-9.313 7.175-.545 14.201 1.514 21.353.991l.468.035c-.04 6.017-.079 12.035-.118 18.052-4.996-.02-9.994-.104-14.99-.043-5.731.069-7.903 2.165-7.922 7.816-.056 16.157-.063 32.314.004 48.471.023 5.711 2.926 8.584 8.591 8.7 5.161.106 10.326.067 15.489.093l1.028 20.931h-.465z"/><path fill="#EB058D" d="M340.757 23.654c.098-4.809-.341-9.657 1.056-14.374 1.657-5.595 5.984-9.462 10.392-9.273 5.099.218 10.048 4.403 10.809 10.065.483 3.592 1.796 3.723 4.818 3.141 5.31-1.024 10.853 2.069 12.793 6.593 1.783 4.158-.125 9.825-4.855 12.999-9.327 6.26-20.164 8.377-30.881 10.741-2.51.554-2.587-1.281-2.824-2.99-.777-5.609-1.353-11.23-1.308-16.902z"/><path fill="#CFD0D2" d="M193.403 283.507c9.382-.875 18.909-1 28.111-2.795 14.904-2.908 21.249-11.878 19.272-26.896-1.175-8.931-.992-17.893-1.417-26.795-.593-12.421-1.07-24.888-1.531-37.328-.597-16.078-1.308-32.157-1.992-48.235-.609-14.308-4.888-21.373-16.758-25.315-3.677-1.221-7.589-.852-11.332-1.165-6.751-.563-13.496-2.019-20.339-1.286-1.698-15.432 6.928-26.144 21.98-26.167 13.246-.02 26.46 1.441 39.644 2.829.59 21.213 1.341 42.416 2.841 63.591.597 8.432.244 16.894.94 25.363.964 11.731.599 23.564 1.296 35.324 1.343 22.683 2.095 45.388 3.147 68.079.353 7.624.601 15.241.756 22.867-13.923 2.016-27.885 4.176-41.955 3.976-10.313-.146-17.177-6.224-20.715-15.873-1.198-3.264-1.932-6.662-1.948-10.174z"/><path fill="#E5E5E6" d="M147.09 109.934c6.049 7.302 5.553 15.994 6.169 24.809 1.056 15.121-.24 30.262.962 45.293 1.076 13.465-.182 26.932.949 40.305 1.39 16.444.073 32.891 1.042 49.285.358 6.057-.31 11.771-1.456 17.576-.932.228-1.863.453-2.793.677-6.757.552-13.507 1.457-20.271 1.575-10.74.187-18.116-6.039-20.736-16.466-1.11-4.416-.544-8.918-1.259-13.331l.433-1.09c5.459-.063 10.875-.19 16.349-.796 12.04-1.331 17.545-7.315 17.643-19.48.2-24.743-.924-49.454-1.087-74.183-.021-3.158.006-6.316-.014-9.475-.051-7.822-5.993-15.114-13.638-15.873-7.229-.717-14.531-.7-21.8-1.005-.138-2.48-.082-4.989-.447-7.436-1.774-11.911 7.101-22.095 18.938-21.717 5.974.191 11.943.569 17.914.862 1.032.158 2.067.314 3.102.47z"/><path fill="#6E6F72" d="M109.695 259.659c.716 4.412.15 8.914 1.26 13.331 2.621 10.427 9.997 16.653 20.736 16.466 6.764-.118 13.515-1.023 20.271-1.575-1.513 5.108-6.083 6.773-10.287 7.44-9.923 1.573-19.99 2.239-29.998 3.279-6.396.664-12.79 1.34-19.184 2.012-.918-6.23-.272-12.504-.532-18.753-.294-7.07-.594-14.14-.892-21.21l.286.09c6.047-1.487 12.197-1.226 18.34-1.08zM143.985 109.466c-5.971-.293-11.939-.671-17.914-.862-11.837-.378-20.712 9.806-18.938 21.717.364 2.446.309 4.955.447 7.436l-.467-.099c-6.044.397-11.992-.735-17.987-1.12l-.175.109c-.143-11.315-.286-22.63-.426-33.944 16.225-.065 32.348 1.579 48.473 3.025 2.535.227 5.605.745 6.987 3.738z"/><path fill="#F2F2F3" d="M44.466 149.568c3.993.009 7.987 0 11.98.031 6.897.055 11.127 4.64 11.642 11.437 1.218 16.092.189 32.238 1.175 48.286.632 10.302.493 20.563.711 30.839.145 6.815-4.167 11.133-11.065 11.405-3.655.144-7.32.042-10.982.051-.285-.001-.569-.012-.853-.032-.78-6.675-1.35-13.359-.785-20.086 1.491.033 2.984.089 4.476.093 9.313.022 12.265-2.867 12.242-12.064-.035-14.069.17-28.133-.897-42.194-.535-7.046-3.434-10.503-10.6-10.724-2.155-.066-4.314-.004-6.471-.001l-.573-17.041z"/><path fill="#A7A9AC" d="M46.29 231.499c-.566 6.728.003 13.411.784 20.086-4.586 1.134-9.259 1.079-13.931 1.022-.342-6.977-.684-13.954-1.027-20.931l.252.065c4.542-.046 9.086-.09 13.63-.135l.292-.107zM44.466 149.568c.191 5.68.382 11.36.572 17.04l-.276-.132c-4.538.015-9.077.03-13.615.044l-.204.119c.039-6.017.079-12.035.119-18.052l12.96.005.444.976z"/><path fill="#828386" d="M107.113 137.658c1.207 15.737.738 31.515 1.143 47.271.631 24.546 1.249 49.093 1.872 73.639l-.433 1.09c-6.144-.146-12.294-.406-18.341 1.079l-2.229-124.2c5.996.386 11.944 1.518 17.988 1.121z"/><path fill="#BBBCBF" d="M44.762 166.476c.097 21.716 1.664 43.404 1.236 65.13-4.544.045-9.088.089-13.63.135-.109-5.976-.221-11.953-.333-17.93l-.889-47.29 13.616-.045z"/></svg>