<?xml version="1.0" encoding="utf-8"?>
<!-- Generator: Adobe Illustrator 17.0.0, SVG Export Plug-In . SVG Version: 6.00 Build 0)  -->
<!DOCTYPE svg PUBLIC "-//W3C//DTD SVG 1.1//EN" "http://www.w3.org/Graphics/SVG/1.1/DTD/svg11.dtd">
<svg version="1.1" id="mnemonic" xmlns="http://www.w3.org/2000/svg" xmlns:xlink="http://www.w3.org/1999/xlink" x="0px" y="0px"
	 width="240px" height="234px" viewBox="0 0 240 234" enable-background="new 0 0 240 234" xml:space="preserve">
<g>
	<radialGradient id="SVGID_1_" cx="97.7109" cy="81.2863" r="143.4321" gradientUnits="userSpaceOnUse">
		<stop  offset="0" style="stop-color:#00232F;stop-opacity:0.85"/>
		<stop  offset="0.7669" style="stop-color:#00232F"/>
	</radialGradient>
	<rect x="10" y="10" fill-rule="evenodd" clip-rule="evenodd" fill="url(#SVGID_1_)" width="220" height="214"/>
</g>
<g>
	<path fill-rule="evenodd" clip-rule="evenodd" fill="#00B5DE" d="M0,0v233.999h240.001V0H0z M10,10h220.001v213.999H10V10z"/>
</g>
<path fill-rule="evenodd" clip-rule="evenodd" fill="#00B5DE" d="M58,54.789c0-0.66,1.415-1.154,2.24-1.154
	c6.435-0.33,15.882-0.495,25.782-0.495c27.72,0,38.515,15.181,38.515,34.649c0,25.41-18.428,36.301-41.033,36.301
	c-3.795,0-5.115-0.166-7.755-0.166v38.42c0,0.826-0.33,1.156-1.155,1.156H59.156c-0.825,0-1.155-0.33-1.155-1.156V54.789z
	 M75.75,107.92c2.31,0.164,4.125,0.164,8.085,0.164c11.715,0,22.718-4.125,22.718-19.965c0-12.705-7.868-19.14-21.233-19.14
	c-3.96,0-7.755,0.165-9.57,0.33V107.92z M161.823,96.039c-7.92,0-10.56,3.961-10.56,7.26c0,3.631,1.814,6.105,12.375,11.551
	c15.675,7.59,20.625,14.85,20.625,25.575c0,16.006-12.21,24.586-28.71,24.586c-8.745,0-16.188-1.816-20.478-4.291
	c-0.66-0.33-0.825-0.824-0.825-1.65v-14.684c0-0.99,0.495-1.32,1.155-0.826c6.27,4.125,13.547,5.941,20.147,5.941
	c7.92,0,11.22-3.301,11.22-7.756c0-3.631-2.31-6.766-12.375-12.045c-14.19-6.766-20.13-13.696-20.13-25.245
	c0-12.871,10.065-23.596,27.555-23.596c8.58,0,14.638,1.32,17.938,2.805c0.825,0.496,0.99,1.32,0.99,1.98V99.34
	c0,0.824-0.495,1.32-1.485,0.99C174.811,97.689,168.258,96.039,161.823,96.039z"/>
</svg>
