<svg xmlns="http://www.w3.org/2000/svg" width="240" height="234"><radialGradient id="a" cx="97.711" cy="81.286" r="143.432" gradientUnits="userSpaceOnUse"><stop offset="0" stop-color="#00232F" stop-opacity=".85"/><stop offset=".767" stop-color="#00232F"/></radialGradient><path fill-rule="evenodd" clip-rule="evenodd" fill="url(#a)" d="M10 10h220v214h-220z"/><path fill-rule="evenodd" clip-rule="evenodd" fill="#00B5DE" d="M0 0v233.999h240.001v-233.999h-240.001zm10 10h220.001v213.999h-220.001v-213.999zM58 54.789c0-.66 1.415-1.154 2.24-1.154 6.435-.33 15.882-.495 25.782-.495 27.72 0 38.515 15.181 38.515 34.649 0 25.41-18.428 36.301-41.033 36.301-3.795 0-5.115-.166-7.755-.166v38.42c0 .826-.33 1.156-1.155 1.156h-15.438c-.825 0-1.155-.33-1.155-1.156v-107.555zm17.75 53.131c2.31.164 4.125.164 8.085.164 11.715 0 22.718-4.125 22.718-19.965 0-12.705-7.868-19.14-21.233-19.14-3.96 0-7.755.165-9.57.33v38.611zm86.073-11.881c-7.92 0-10.56 3.961-10.56 7.26 0 3.631 1.814 6.105 12.375 11.551 15.675 7.59 20.625 14.85 20.625 25.575 0 16.006-12.21 24.586-28.71 24.586-8.745 0-16.188-1.816-20.478-4.291-.66-.33-.825-.824-.825-1.65v-14.684c0-.99.495-1.32 1.155-.826 6.27 4.125 13.547 5.941 20.147 5.941 7.92 0 11.22-3.301 11.22-7.756 0-3.631-2.31-6.766-12.375-12.045-14.19-6.766-20.13-13.696-20.13-25.245 0-12.871 10.065-23.596 27.555-23.596 8.58 0 14.638 1.32 17.938 2.805.825.496.99 1.32.99 1.98v13.696c0 .824-.495 1.32-1.485.99-4.454-2.641-11.007-4.291-17.442-4.291z"/></svg>